<svg width="20" height="20" viewBox="0 0 20 20" fill="none" xmlns="http://www.w3.org/2000/svg">
<rect width="20" height="20" rx="10" fill="#20C4F4"/>
<g clip-path="url(#clip0_1468_19365)">
<path d="M14.5273 4.34473H4.87852C4.30757 4.34473 3.84473 4.80757 3.84473 5.37852V10.8921C3.84473 11.463 4.30757 11.9259 4.87852 11.9259H14.5273C15.0982 11.9259 15.5611 11.463 15.5611 10.8921V5.37852C15.5611 4.80757 15.0982 4.34473 14.5273 4.34473Z" stroke="white" stroke-width="0.689197"/>
<path d="M8.25537 12.6851V14.8432" stroke="white" stroke-width="0.689197"/>
<path d="M11.3022 12.6851V14.8432" stroke="white" stroke-width="0.689197"/>
<path d="M6.5542 14.8433H12.8764" stroke="white" stroke-width="0.689197"/>
<path d="M4.90186 8.8194H6.52053L7.12425 10.3245L8.32159 5.93765L9.52768 10.9081L10.1586 8.81895H10.9691L11.5852 4.86426L12.1117 8.81895H14.5239" stroke="white" stroke-width="0.459464"/>
</g>
<defs>
<clipPath id="clip0_1468_19365">
<rect width="12.4055" height="11.1875" fill="white" transform="translate(3.5 4)"/>
</clipPath>
</defs>
</svg>
